<svg width="30" height="30" viewBox="0 0 30 30" fill="none" xmlns="http://www.w3.org/2000/svg">
<circle cx="15" cy="15" r="15" fill="#3F3E41"/>
<path d="M22.5 11.6444L19.5327 13.293C17.8783 14.212 17.0512 14.6716 16.1752 14.8518C15.3998 15.0112 14.6002 15.0112 13.8248 14.8518C12.9489 14.6716 12.1217 14.212 10.4673 13.293L7.5 11.6444M10.1667 20.8111H19.8333C20.7667 20.8111 21.2335 20.8111 21.59 20.6294C21.9036 20.4697 22.1586 20.2147 22.3183 19.9011C22.5 19.5446 22.5 19.0779 22.5 18.1444V11.8111C22.5 10.8777 22.5 10.411 22.3183 10.0545C22.1586 9.74085 21.9036 9.48588 21.59 9.3261C21.2335 9.14444 20.7667 9.14444 19.8333 9.14444H10.1667C9.23325 9.14444 8.76653 9.14444 8.41002 9.3261C8.09641 9.48588 7.84144 9.74085 7.68166 10.0545C7.5 10.411 7.5 10.8777 7.5 11.8111V18.1444C7.5 19.0779 7.5 19.5446 7.68166 19.9011C7.84144 20.2147 8.09641 20.4697 8.41002 20.6294C8.76653 20.8111 9.23324 20.8111 10.1667 20.8111Z" stroke="white" stroke-width="1.66667" stroke-linecap="round" stroke-linejoin="round"/>
</svg>
