<svg width="30" height="30" viewBox="0 0 30 30" fill="none" xmlns="http://www.w3.org/2000/svg">
<circle cx="15" cy="15" r="15" fill="#3F3E41"/>
<path fill-rule="evenodd" clip-rule="evenodd" d="M8.40002 11.0667C8.40002 9.5939 9.59393 8.39999 11.0667 8.39999H19.0667C20.5394 8.39999 21.7334 9.5939 21.7334 11.0667V19.0667C21.7334 20.5394 20.5394 21.7333 19.0667 21.7333H11.0667C9.59393 21.7333 8.40002 20.5394 8.40002 19.0667V11.0667ZM11.0667 9.73333C10.3303 9.73333 9.73336 10.3303 9.73336 11.0667V19.0667C9.73336 19.8031 10.3303 20.4 11.0667 20.4H15.0667V15.7333H14.4C14.0318 15.7333 13.7334 15.4349 13.7334 15.0667C13.7334 14.6985 14.0318 14.4 14.4 14.4H15.0667V13.4C15.0667 12.1113 16.1114 11.0667 17.4 11.0667H17.8C18.1682 11.0667 18.4667 11.3651 18.4667 11.7333C18.4667 12.1015 18.1682 12.4 17.8 12.4H17.4C16.8478 12.4 16.4 12.8477 16.4 13.4V14.4H17.8C18.1682 14.4 18.4667 14.6985 18.4667 15.0667C18.4667 15.4349 18.1682 15.7333 17.8 15.7333H16.4V20.4H19.0667C19.8031 20.4 20.4 19.8031 20.4 19.0667V11.0667C20.4 10.3303 19.8031 9.73333 19.0667 9.73333H11.0667Z" fill="white"/>
</svg>
