<svg width="30" height="30" viewBox="0 0 30 30" fill="none" xmlns="http://www.w3.org/2000/svg">
<circle cx="15" cy="15" r="15" fill="#3F3E41"/>
<path fill-rule="evenodd" clip-rule="evenodd" d="M15.075 18.825C17.146 18.825 18.825 17.1461 18.825 15.075C18.825 13.0039 17.146 11.325 15.075 11.325C13.0039 11.325 11.325 13.0039 11.325 15.075C11.325 17.1461 13.0039 18.825 15.075 18.825ZM15.075 17.575C16.4556 17.575 17.575 16.4557 17.575 15.075C17.575 13.6943 16.4556 12.575 15.075 12.575C13.6942 12.575 12.575 13.6943 12.575 15.075C12.575 16.4557 13.6942 17.575 15.075 17.575Z" fill="white"/>
<path d="M18.825 10.7C18.4798 10.7 18.2 10.9798 18.2 11.325C18.2 11.6702 18.4798 11.95 18.825 11.95C19.1701 11.95 19.45 11.6702 19.45 11.325C19.45 10.9798 19.1701 10.7 18.825 10.7Z" fill="white"/>
<path fill-rule="evenodd" clip-rule="evenodd" d="M8.60868 10.2475C8.19995 11.0497 8.19995 12.0998 8.19995 14.2V15.95C8.19995 18.0502 8.19995 19.1003 8.60868 19.9024C8.9682 20.6081 9.54188 21.1818 10.2475 21.5413C11.0497 21.95 12.0998 21.95 14.2 21.95H15.95C18.0501 21.95 19.1003 21.95 19.9024 21.5413C20.608 21.1818 21.1817 20.6081 21.5412 19.9024C21.95 19.1003 21.95 18.0502 21.95 15.95V14.2C21.95 12.0998 21.95 11.0497 21.5412 10.2475C21.1817 9.54194 20.608 8.96826 19.9024 8.60874C19.1003 8.20001 18.0501 8.20001 15.95 8.20001H14.2C12.0998 8.20001 11.0497 8.20001 10.2475 8.60874C9.54188 8.96826 8.9682 9.54194 8.60868 10.2475ZM15.95 9.45001H14.2C13.1292 9.45001 12.4014 9.45099 11.8388 9.49695C11.2907 9.54172 11.0105 9.62288 10.815 9.72249C10.3446 9.96218 9.96212 10.3446 9.72243 10.815C9.62282 11.0105 9.54166 11.2908 9.49689 11.8388C9.45093 12.4014 9.44995 13.1293 9.44995 14.2V15.95C9.44995 17.0208 9.45093 17.7486 9.49689 18.3112C9.54166 18.8593 9.62282 19.1395 9.72243 19.335C9.96212 19.8054 10.3446 20.1878 10.815 20.4275C11.0105 20.5271 11.2907 20.6083 11.8388 20.6531C12.4014 20.699 13.1292 20.7 14.2 20.7H15.95C17.0207 20.7 17.7485 20.699 18.3111 20.6531C18.8592 20.6083 19.1395 20.5271 19.335 20.4275C19.8053 20.1878 20.1878 19.8054 20.4275 19.335C20.5271 19.1395 20.6083 18.8593 20.653 18.3112C20.699 17.7486 20.7 17.0208 20.7 15.95V14.2C20.7 13.1293 20.699 12.4014 20.653 11.8388C20.6083 11.2908 20.5271 11.0105 20.4275 10.815C20.1878 10.3446 19.8053 9.96218 19.335 9.72249C19.1395 9.62288 18.8592 9.54172 18.3111 9.49695C17.7485 9.45099 17.0207 9.45001 15.95 9.45001Z" fill="white"/>
</svg>
