<svg width="30" height="30" viewBox="0 0 30 30" fill="none" xmlns="http://www.w3.org/2000/svg">
<circle cx="15" cy="15" r="15" fill="#3F3E41"/>
<g clip-path="url(#clip0_33_214)">
<path d="M10.0117 11.6718C10.1069 10.9187 11.0856 9.89512 11.8624 10.0087L11.8612 10.0075C12.6171 10.1511 13.2155 11.4522 13.5529 12.0372C13.792 12.4617 13.6368 12.8917 13.4138 13.0732C13.1129 13.3157 12.6425 13.6502 12.7412 13.9862C12.9167 14.5833 15 16.6667 16.0247 17.2589C16.4125 17.4831 16.6938 16.8918 16.9339 16.5889C17.1084 16.3559 17.5388 16.2167 17.9623 16.4467C18.5948 16.815 19.1907 17.2431 19.7417 17.725C20.0168 17.955 20.0814 18.2949 19.8908 18.6542C19.5549 19.2869 18.5836 20.1213 17.8785 19.9517C16.647 19.6557 11.6667 17.725 10.0669 12.1317C9.97698 11.8671 9.99963 11.767 10.0117 11.6718Z" fill="white"/>
<path fill-rule="evenodd" clip-rule="evenodd" d="M15 24.1667C13.9804 24.1667 13.4162 24.0573 12.5 23.75L10.7454 24.6273C9.63722 25.1814 8.33337 24.3756 8.33337 23.1366V21.25C6.53883 19.5767 5.83337 17.6473 5.83337 15C5.83337 9.9374 9.93743 5.83334 15 5.83334C20.0626 5.83334 24.1667 9.9374 24.1667 15C24.1667 20.0626 20.0626 24.1667 15 24.1667ZM10 20.5253L9.47 20.031C8.07577 18.731 7.50004 17.2776 7.50004 15C7.50004 10.8579 10.8579 7.50001 15 7.50001C19.1422 7.50001 22.5 10.8579 22.5 15C22.5 19.1422 19.1422 22.5 15 22.5C14.1786 22.5 13.7934 22.4258 13.03 22.1698L12.3738 21.9498L10 23.1366V20.5253Z" fill="white"/>
</g>
<defs>
<clipPath id="clip0_33_214">
<rect width="20" height="20" fill="white" transform="translate(5 5)"/>
</clipPath>
</defs>
</svg>
