<svg width="30" height="30" viewBox="0 0 30 30" fill="none" xmlns="http://www.w3.org/2000/svg">
<circle cx="15" cy="15" r="15" fill="#3F3E41"/>
<path fill-rule="evenodd" clip-rule="evenodd" d="M13.1221 11.3488C12.89 11.2162 12.6048 11.2171 12.3736 11.3513C12.1423 11.4855 12 11.7326 12 12V18C12 18.2674 12.1423 18.5145 12.3736 18.6487C12.6048 18.7828 12.89 18.7838 13.1221 18.6511L18.3721 15.6511C18.6058 15.5176 18.75 15.2692 18.75 15C18.75 14.7308 18.6058 14.4823 18.3721 14.3488L13.1221 11.3488ZM16.4883 15L13.5 16.7076V13.2924L16.4883 15Z" fill="white"/>
<path fill-rule="evenodd" clip-rule="evenodd" d="M6 15C6 12.1877 6 10.7815 6.71619 9.7958C6.94748 9.47745 7.22745 9.19748 7.5458 8.96618C8.53155 8.25 9.9377 8.25 12.75 8.25H17.25C20.0623 8.25 21.4684 8.25 22.4542 8.96618C22.7726 9.19748 23.0525 9.47745 23.2838 9.7958C24 10.7815 24 12.1877 24 15C24 17.8123 24 19.2184 23.2838 20.2042C23.0525 20.5225 22.7726 20.8025 22.4542 21.0338C21.4684 21.75 20.0623 21.75 17.25 21.75H12.75C9.9377 21.75 8.53155 21.75 7.5458 21.0338C7.22745 20.8025 6.94748 20.5225 6.71619 20.2042C6 19.2184 6 17.8123 6 15ZM12.75 9.75H17.25C18.6896 9.75 19.6487 9.75206 20.3755 9.8308C21.0742 9.90649 21.378 10.0384 21.5725 10.1797C21.7635 10.3185 21.9315 10.4865 22.0703 10.6775C22.2116 10.872 22.3435 11.1758 22.4192 11.8745C22.498 12.6013 22.5 13.5605 22.5 15C22.5 16.4396 22.498 17.3987 22.4192 18.1255C22.3435 18.8242 22.2116 19.128 22.0703 19.3225C21.9315 19.5135 21.7635 19.6815 21.5725 19.8203C21.378 19.9616 21.0742 20.0935 20.3755 20.1692C19.6487 20.248 18.6896 20.25 17.25 20.25H12.75C11.3104 20.25 10.3513 20.248 9.62452 20.1692C8.92585 20.0935 8.62204 19.9616 8.42748 19.8203C8.23647 19.6815 8.06849 19.5135 7.92971 19.3225C7.78836 19.128 7.65649 18.8242 7.5808 18.1255C7.50206 17.3987 7.5 16.4396 7.5 15C7.5 13.5605 7.50206 12.6013 7.5808 11.8745C7.65649 11.1758 7.78836 10.872 7.92971 10.6775C8.06849 10.4865 8.23647 10.3185 8.42748 10.1797C8.62204 10.0384 8.92585 9.90649 9.62452 9.8308C10.3513 9.75206 11.3104 9.75 12.75 9.75Z" fill="white"/>
</svg>
