<svg width="150" height="150" viewBox="0 0 150 150" fill="none" xmlns="http://www.w3.org/2000/svg">
<circle cx="75" cy="75" r="75" fill="#86D28B"/>
<path d="M37.5 72.0833C37.5 51.3729 54.2893 34.5836 75 34.5836C95.7108 34.5836 112.5 51.3729 112.5 72.0833M37.5 72.0833H45.8333C50.4357 72.0833 54.1667 75.8146 54.1667 80.4167V88.75C54.1667 93.3525 50.4357 97.0833 45.8333 97.0833M37.5 72.0833V92.9167C37.5 95.2179 39.3655 97.0833 41.6667 97.0833H45.8333M112.5 72.0833H104.167C99.5642 72.0833 95.8333 75.8146 95.8333 80.4167V88.75C95.8333 93.3525 99.5642 97.0833 104.167 97.0833H108.333C110.635 97.0833 112.5 95.2179 112.5 92.9167V72.0833ZM45.8333 97.0833V101.25C45.8333 105.853 49.5643 109.583 54.1667 109.583H62.5M62.5 109.583C62.5 113.035 65.2982 115.833 68.75 115.833H72.9167C76.3683 115.833 79.1667 113.035 79.1667 109.583C79.1667 106.132 76.3683 103.333 72.9167 103.333H68.75C65.2982 103.333 62.5 106.132 62.5 109.583Z" stroke="black" stroke-width="8.33333" stroke-linecap="round"/>
</svg>
