<svg width="539" height="198" viewBox="0 0 539 198" fill="none" xmlns="http://www.w3.org/2000/svg">
<path d="M272.9 197.54C417.875 197.54 535.4 196.131 535.4 194.394C535.4 192.656 417.875 191.248 272.9 191.248C127.925 191.248 10.3999 192.656 10.3999 194.394C10.3999 196.131 127.925 197.54 272.9 197.54Z" fill="#58595B"/>
<path d="M95.1564 194.394H78.9856C63.5409 194.394 51.0271 177.62 51.0271 156.93C51.0271 136.25 63.5409 119.476 78.9856 119.476H95.1564C79.7118 119.476 67.198 136.25 67.198 156.93C67.1977 177.62 79.7118 194.394 95.1564 194.394Z" fill="#231F20"/>
<mask id="mask0_98_581" style="mask-type:luminance" maskUnits="userSpaceOnUse" x="51" y="119" width="45" height="76">
<path d="M95.1564 194.394H78.9856C63.5409 194.394 51.0271 177.62 51.0271 156.93C51.0271 136.25 63.5409 119.476 78.9856 119.476H95.1564C79.7118 119.476 67.198 136.25 67.198 156.93C67.1977 177.62 79.7118 194.394 95.1564 194.394Z" fill="white"/>
</mask>
<g mask="url(#mask0_98_581)">
<path d="M67.1977 156.93C67.1977 154.915 67.3234 152.941 67.5523 151.012H51.3814C51.1528 152.94 51.0271 154.915 51.0271 156.93C51.0271 177.62 63.5411 194.394 78.9856 194.394H95.1564C79.7118 194.394 67.1977 177.62 67.1977 156.93Z" fill="#231F20"/>
<path d="M57.703 132.64C55.6321 135.893 53.9695 139.627 52.8216 143.699C52.1636 146.034 51.6813 148.482 51.3813 151.012H67.5522C67.8522 148.482 68.3344 146.034 68.9924 143.699C70.1404 139.627 71.8032 135.893 73.8739 132.64H57.703Z" fill="#231F20"/>
<path d="M63.103 126.106C61.0978 127.964 59.2812 130.161 57.7031 132.64H73.874C75.452 130.161 77.2687 127.964 79.2739 126.106H63.103Z" fill="#231F20"/>
<path d="M95.1564 119.476H78.9856C73.085 119.476 67.6137 121.927 63.1033 126.107H79.2741C83.7845 121.927 89.2556 119.476 95.1564 119.476Z" fill="#231F20"/>
</g>
<path d="M94.5282 119.476C110.32 119.476 123.115 136.25 123.115 156.93C123.115 177.62 110.32 194.394 94.5282 194.394C78.7367 194.394 65.9416 177.62 65.9416 156.93C65.9416 136.25 78.7364 119.476 94.5282 119.476Z" fill="#939598"/>
<path d="M95.1564 119.476C110.601 119.476 123.115 136.25 123.115 156.93C123.115 177.62 110.601 194.394 95.1564 194.394C79.7117 194.394 67.1979 177.62 67.1979 156.93C67.1977 136.25 79.7117 119.476 95.1564 119.476Z" fill="black"/>
<path d="M337.382 194.394H321.211C305.766 194.394 293.252 177.62 293.252 156.93C293.252 136.25 305.766 119.476 321.211 119.476H337.382C321.937 119.476 309.423 136.25 309.423 156.93C309.423 177.62 321.937 194.394 337.382 194.394Z" fill="#231F20"/>
<mask id="mask1_98_581" style="mask-type:luminance" maskUnits="userSpaceOnUse" x="293" y="119" width="45" height="76">
<path d="M337.382 194.394H321.211C305.766 194.394 293.252 177.62 293.252 156.93C293.252 136.25 305.766 119.476 321.211 119.476H337.382C321.937 119.476 309.423 136.25 309.423 156.93C309.423 177.62 321.937 194.394 337.382 194.394Z" fill="white"/>
</mask>
<g mask="url(#mask1_98_581)">
<path d="M309.423 156.93C309.423 154.915 309.549 152.941 309.777 151.012H293.607C293.378 152.94 293.252 154.915 293.252 156.93C293.252 177.62 305.766 194.394 321.211 194.394H337.382C321.937 194.394 309.423 177.62 309.423 156.93Z" fill="#231F20"/>
<path d="M299.928 132.64C297.857 135.893 296.195 139.627 295.047 143.699C294.388 146.034 293.906 148.482 293.606 151.012H309.777C310.077 148.482 310.56 146.034 311.218 143.699C312.365 139.627 314.028 135.893 316.099 132.64H299.928Z" fill="#231F20"/>
<path d="M305.328 126.106C303.323 127.964 301.506 130.161 299.928 132.64H316.099C317.677 130.161 319.494 127.964 321.499 126.106H305.328Z" fill="#231F20"/>
<path d="M337.382 119.476H321.211C315.31 119.476 309.839 121.927 305.328 126.107H321.499C326.01 121.927 331.481 119.476 337.382 119.476Z" fill="#231F20"/>
</g>
<path d="M336.753 119.476C352.545 119.476 365.34 136.25 365.34 156.93C365.34 177.62 352.545 194.394 336.753 194.394C320.962 194.394 308.167 177.62 308.167 156.93C308.167 136.25 320.962 119.476 336.753 119.476Z" fill="#939598"/>
<path d="M337.382 119.476C352.826 119.476 365.34 136.25 365.34 156.93C365.34 177.62 352.826 194.394 337.382 194.394C321.937 194.394 309.423 177.62 309.423 156.93C309.423 136.25 321.937 119.476 337.382 119.476Z" fill="black"/>
<path d="M527.931 136.034C527.931 146.715 522.346 156.328 513.812 160.335L498.369 167.587C494.665 169.15 490.754 169.95 486.812 169.95H27.795C25.4539 169.95 23.5559 167.748 23.5559 165.032V128.261C23.5559 110.493 35.9712 96.0891 51.2863 96.0891H527.932L527.931 136.034Z" fill="black"/>
<path d="M232.499 194.394H216.328C200.884 194.394 188.37 177.62 188.37 156.93C188.37 136.25 200.884 119.476 216.328 119.476H232.499C217.055 119.476 204.541 136.25 204.541 156.93C204.541 177.62 217.055 194.394 232.499 194.394Z" fill="black"/>
<mask id="mask2_98_581" style="mask-type:luminance" maskUnits="userSpaceOnUse" x="188" y="119" width="45" height="76">
<path d="M232.499 194.394H216.328C200.884 194.394 188.37 177.62 188.37 156.93C188.37 136.25 200.884 119.476 216.328 119.476H232.499C217.055 119.476 204.541 136.25 204.541 156.93C204.541 177.62 217.055 194.394 232.499 194.394Z" fill="white"/>
</mask>
<g mask="url(#mask2_98_581)">
<path d="M204.541 156.93C204.541 154.915 204.666 152.941 204.895 151.012H188.724C188.496 152.94 188.37 154.915 188.37 156.93C188.37 177.62 200.884 194.394 216.329 194.394H232.499C217.055 194.394 204.541 177.62 204.541 156.93Z" fill="black"/>
<path d="M195.046 132.64C192.975 135.893 191.313 139.627 190.165 143.699C189.507 146.034 189.024 148.482 188.724 151.012H204.895C205.195 148.482 205.677 146.034 206.335 143.699C207.483 139.627 209.146 135.893 211.217 132.64H195.046Z" fill="black"/>
<path d="M200.446 126.107C198.441 127.964 196.624 130.161 195.046 132.64H211.217C212.795 130.161 214.612 127.964 216.617 126.107H200.446Z" fill="black"/>
<path d="M232.499 119.476H216.328C210.428 119.476 204.957 121.927 200.446 126.107H216.617C221.127 121.927 226.599 119.476 232.499 119.476Z" fill="black"/>
</g>
<path d="M231.871 119.476C247.663 119.476 260.458 136.25 260.458 156.93C260.458 177.62 247.663 194.394 231.871 194.394C216.08 194.394 203.285 177.62 203.285 156.93C203.284 136.25 216.08 119.476 231.871 119.476Z" fill="#939598"/>
<path d="M232.499 119.476C247.944 119.476 260.458 136.25 260.458 156.93C260.458 177.62 247.944 194.394 232.499 194.394C217.055 194.394 204.541 177.62 204.541 156.93C204.541 136.25 217.055 119.476 232.499 119.476Z" fill="#414042"/>
<path d="M232.499 129.076C243.986 129.076 253.293 141.551 253.293 156.931C253.293 172.319 243.986 184.794 232.499 184.794C221.013 184.794 211.706 172.319 211.706 156.931C211.706 141.551 221.013 129.076 232.499 129.076Z" fill="#231F20"/>
<path d="M232.499 133.134C242.313 133.134 250.264 143.792 250.264 156.932C250.264 170.078 242.313 180.736 232.499 180.736C222.686 180.736 214.735 170.078 214.735 156.932C214.735 143.792 222.686 133.134 232.499 133.134Z" fill="black"/>
<path d="M232.499 130.373C221.54 130.373 212.66 142.276 212.66 156.952C212.66 171.634 221.54 183.536 232.499 183.536C243.459 183.536 252.339 171.633 252.339 156.952C252.339 142.276 243.459 130.373 232.499 130.373ZM235.547 159.616L249.935 164.798C249.098 168.137 247.742 171.146 245.997 173.675L235.547 159.616ZM246.244 140.599C247.951 143.172 249.275 146.209 250.062 149.575L235.737 154.735L246.244 140.599ZM236.51 132.904L232.689 152.073L228.845 132.789C230.026 132.47 231.248 132.299 232.499 132.299C233.879 132.299 235.218 132.518 236.51 132.904ZM218.755 173.31C217.048 170.737 215.725 167.7 214.938 164.335L229.261 159.176L218.755 173.31ZM215.064 149.111C215.9 145.773 217.256 142.764 219.002 140.235L229.451 154.294L215.064 149.111ZM228.489 181.006L232.31 161.837L236.154 181.121C234.972 181.44 233.751 181.611 232.498 181.611C231.12 181.61 229.781 181.391 228.489 181.006Z" fill="#E6E7E8"/>
<path d="M232.5 156.1C239.245 156.1 245.505 157.672 250.689 160.358C250.806 159.235 250.887 158.097 250.887 156.932C250.887 143.331 242.657 132.299 232.5 132.299C222.342 132.299 214.112 143.331 214.112 156.932C214.112 158.097 214.193 159.235 214.31 160.358C219.494 157.672 225.754 156.1 232.5 156.1Z" fill="#D1D3D4"/>
<path d="M232.52 130.373C221.572 130.373 212.7 142.27 212.7 156.937C212.7 171.611 221.572 183.507 232.52 183.507C243.468 183.507 252.339 171.611 252.339 156.937C252.339 142.27 243.468 130.373 232.52 130.373ZM232.52 181.64C222.341 181.64 214.095 170.58 214.095 156.937C214.095 143.301 222.342 132.242 232.52 132.242C242.698 132.242 250.945 143.301 250.945 156.937C250.945 170.579 242.698 181.64 232.52 181.64Z" fill="white"/>
<path d="M229.912 148.808C233.263 148.808 235.977 152.447 235.977 156.934C235.977 161.423 233.263 172.259 229.912 172.259C226.561 172.259 223.846 161.423 223.846 156.934C223.846 152.447 226.561 148.808 229.912 148.808Z" fill="#939598"/>
<path d="M229.912 148.808C233.263 148.808 235.977 152.447 235.977 156.934C235.977 161.423 233.263 165.062 229.912 165.062C226.561 165.062 223.846 161.423 223.846 156.934C223.846 152.447 226.561 148.808 229.912 148.808Z" fill="black"/>
<path d="M232.5 148.808C235.85 148.808 238.565 152.447 238.565 156.934C238.565 161.423 235.85 165.062 232.5 165.062C229.149 165.062 226.434 161.423 226.434 156.934C226.434 152.447 229.149 148.808 232.5 148.808Z" fill="white"/>
<path d="M463.725 194.394H447.554C432.109 194.394 419.595 177.62 419.595 156.93C419.595 136.25 432.109 119.476 447.554 119.476H463.725C448.28 119.476 435.766 136.25 435.766 156.93C435.766 177.62 448.28 194.394 463.725 194.394Z" fill="black"/>
<mask id="mask3_98_581" style="mask-type:luminance" maskUnits="userSpaceOnUse" x="419" y="119" width="45" height="76">
<path d="M463.725 194.394H447.554C432.109 194.394 419.595 177.62 419.595 156.93C419.595 136.25 432.109 119.476 447.554 119.476H463.725C448.28 119.476 435.766 136.25 435.766 156.93C435.766 177.62 448.28 194.394 463.725 194.394Z" fill="white"/>
</mask>
<g mask="url(#mask3_98_581)">
<path d="M435.766 156.93C435.766 154.915 435.892 152.941 436.12 151.012H419.95C419.721 152.94 419.595 154.915 419.595 156.93C419.595 177.62 432.109 194.394 447.554 194.394H463.725C448.28 194.394 435.766 177.62 435.766 156.93Z" fill="black"/>
<path d="M426.272 132.64C424.201 135.893 422.538 139.627 421.39 143.699C420.732 146.034 420.25 148.482 419.95 151.012H436.121C436.421 148.482 436.903 146.034 437.561 143.699C438.709 139.627 440.372 135.893 442.443 132.64H426.272Z" fill="black"/>
<path d="M431.672 126.106C429.666 127.964 427.85 130.161 426.272 132.64H442.443C444.02 130.161 445.837 127.964 447.843 126.106H431.672Z" fill="black"/>
<path d="M463.725 119.476H447.554C441.654 119.476 436.182 121.927 431.672 126.107H447.843C452.353 121.927 457.824 119.476 463.725 119.476Z" fill="black"/>
</g>
<path d="M463.097 119.476C478.888 119.476 491.683 136.25 491.683 156.93C491.683 177.62 478.888 194.394 463.097 194.394C447.305 194.394 434.51 177.62 434.51 156.93C434.51 136.25 447.305 119.476 463.097 119.476Z" fill="#939598"/>
<path d="M463.725 119.476C479.17 119.476 491.684 136.25 491.684 156.93C491.684 177.62 479.17 194.394 463.725 194.394C448.28 194.394 435.766 177.62 435.766 156.93C435.766 136.25 448.28 119.476 463.725 119.476Z" fill="#414042"/>
<path d="M463.725 129.076C475.211 129.076 484.518 141.551 484.518 156.931C484.518 172.319 475.211 184.794 463.725 184.794C452.238 184.794 442.932 172.319 442.932 156.931C442.931 141.551 452.238 129.076 463.725 129.076Z" fill="#231F20"/>
<path d="M463.725 133.134C473.538 133.134 481.489 143.792 481.489 156.932C481.489 170.078 473.538 180.736 463.725 180.736C453.912 180.736 445.96 170.078 445.96 156.932C445.96 143.792 453.912 133.134 463.725 133.134Z" fill="black"/>
<path d="M463.724 130.373C452.765 130.373 443.885 142.276 443.885 156.952C443.885 171.633 452.765 183.536 463.724 183.536C474.685 183.536 483.564 171.633 483.564 156.952C483.564 142.276 474.685 130.373 463.724 130.373ZM466.773 159.616L481.16 164.798C480.324 168.137 478.968 171.146 477.223 173.675L466.773 159.616ZM477.469 140.598C479.177 143.171 480.5 146.209 481.288 149.575L466.962 154.735L477.469 140.598ZM467.735 132.904L463.914 152.073L460.07 132.789C461.252 132.47 462.473 132.299 463.724 132.299C465.104 132.299 466.443 132.518 467.735 132.904ZM449.98 173.31C448.274 170.737 446.95 167.7 446.164 164.335L460.487 159.175L449.98 173.31ZM446.289 149.111C447.126 145.773 448.482 142.763 450.227 140.235L460.676 154.294L446.289 149.111ZM459.714 181.006L463.535 161.837L467.379 181.121C466.198 181.44 464.976 181.611 463.724 181.611C462.346 181.61 461.007 181.391 459.714 181.006Z" fill="#E6E7E8"/>
<path d="M463.725 156.1C470.471 156.1 476.731 157.672 481.915 160.358C482.032 159.235 482.113 158.097 482.113 156.932C482.113 143.331 473.882 132.299 463.725 132.299C453.568 132.299 445.337 143.331 445.337 156.932C445.337 158.097 445.419 159.235 445.536 160.358C450.719 157.672 456.98 156.1 463.725 156.1Z" fill="#D1D3D4"/>
<path d="M463.745 130.373C452.797 130.373 443.926 142.27 443.926 156.937C443.926 171.611 452.797 183.507 463.745 183.507C474.693 183.507 483.564 171.611 483.564 156.937C483.564 142.27 474.693 130.373 463.745 130.373ZM463.745 181.639C453.567 181.639 445.32 170.579 445.32 156.937C445.32 143.301 453.567 132.242 463.745 132.242C473.923 132.242 482.171 143.301 482.171 156.937C482.171 170.579 473.923 181.639 463.745 181.639Z" fill="white"/>
<path d="M461.137 148.808C464.488 148.808 467.203 152.447 467.203 156.934C467.203 161.422 464.488 172.259 461.137 172.259C457.786 172.259 455.071 161.422 455.071 156.934C455.071 152.447 457.786 148.808 461.137 148.808Z" fill="#939598"/>
<path d="M461.137 148.808C464.488 148.808 467.203 152.447 467.203 156.934C467.203 161.422 464.488 165.062 461.137 165.062C457.786 165.062 455.071 161.422 455.071 156.934C455.071 152.447 457.786 148.808 461.137 148.808Z" fill="black"/>
<path d="M463.725 148.808C467.076 148.808 469.791 152.447 469.791 156.934C469.791 161.422 467.076 165.062 463.725 165.062C460.374 165.062 457.659 161.422 457.659 156.934C457.659 152.447 460.374 148.808 463.725 148.808Z" fill="white"/>
<path d="M127.298 60.5786H153.101L151.94 48.7106C151.535 44.567 148.755 41.6102 145.669 42.039L131.72 43.9776C127.397 44.5785 123.986 49.1926 123.557 55.0167C123.338 57.9957 125.076 60.5786 127.298 60.5786Z" fill="black"/>
<path d="M130.497 60.5785H156.932V56.1131H134.069C132.096 56.1131 130.497 57.9686 130.497 60.2575V60.5785Z" fill="black"/>
<path d="M131.72 43.9778L145.669 42.0389C148.755 41.6097 151.535 44.5668 151.94 48.7104L152.192 51.288H133.786C130.847 51.288 128.25 49.5938 126.628 47.025C128.018 45.3721 129.766 44.2498 131.72 43.9778Z" fill="black"/>
<path d="M535.396 87.2789C535.396 85.0438 535.239 82.9647 534.989 81.0688C533.526 69.9872 525.864 61.0619 516.226 60.2397C515.669 60.1921 515.109 60.1682 514.546 60.1682H510.729C502.934 60.1682 495.305 57.5836 488.72 52.7428C468.486 37.8668 422.59 5.81697 402.654 5.73672C402.612 5.73644 361.905 0.0221863 329.656 0.0221863C267.847 0.0221863 237.228 5.72968 237.228 5.72968C237.193 5.73447 237.159 5.74009 237.124 5.74713C202.938 12.6198 137.355 57.0092 132.95 60.0091C132.792 60.1167 132.633 60.1769 132.45 60.1966C128.317 60.6469 76.7527 66.699 34.0485 92.7738C23.5223 99.201 10.4044 111.941 10.4044 125.741L15.2994 155.814C16.28 161.837 20.8159 166.199 26.0995 166.199H195.115H196.71C197.459 166.199 198.087 165.549 198.187 164.688C201.919 132.641 212.246 107.675 237.332 107.675C256.903 107.675 267.656 132.484 266.61 164.385C266.578 165.371 267.245 166.198 268.096 166.198H267.036H368.17H423.94C424.688 166.198 425.316 165.549 425.416 164.688C429.148 132.641 439.475 107.675 464.56 107.675C484.444 107.675 495.226 133.276 493.781 165.909L498.817 163.995C518.131 156.652 531.875 136.811 534.02 113.363C535.306 99.3044 535.396 87.2789 535.396 87.2789Z" fill="#86D28B"/>
<path d="M210.278 56.6243C213.89 56.218 166.266 55.3694 134.004 55.1095C130.047 57.705 127.413 59.4885 126.649 60.0088C126.492 60.1158 126.332 60.1764 126.15 60.1964C122.469 60.5971 81.1637 65.4559 42.0029 84.9334C133.833 66.1474 181.051 59.9114 210.278 56.6243Z" fill="#86D28B"/>
<path d="M45.5074 101.731H115.269C115.269 101.731 176.367 72.5552 211.299 68.2105C189.018 63.7451 115.477 98.0807 115.477 98.0807C115.477 98.0807 45.3397 98.8037 45.5074 101.731Z" fill="#BCBEC0"/>
<path d="M537.613 77.9158C536.255 71.2045 532.497 65.3255 527.077 62.5008C524.158 60.98 520.966 60.1682 517.695 60.1682H513.311C505.887 60.1682 498.629 57.7202 492.362 53.1044C472.363 38.3747 425.786 5.73643 405.729 5.73643H358.43C355.528 5.73643 352.631 6.08503 349.816 6.90074C315.308 16.9003 274.319 60.1682 274.319 60.1682C274.319 60.1682 219.522 65.6552 174.855 93.2635C164.846 99.4499 152.006 111.54 152.006 124.697C153.624 134.894 146.876 144.296 137.939 144.296H38.7137C31.2807 144.296 25.6791 152.136 27.0586 160.61C27.5862 163.851 30.0271 166.198 32.8704 166.198H201.166C204.749 133.428 215.002 107.675 240.481 107.675C260.422 107.675 271.208 133.428 269.687 166.198H428.395C431.978 133.428 442.232 107.675 467.71 107.675C487.594 107.675 498.376 133.276 496.931 165.909L526.296 154.744C538.621 140.153 538.546 87.2789 538.546 87.2789C538.546 83.7269 538.149 80.5687 537.613 77.9158Z" fill="#86D28B"/>
<path d="M92.9383 141.723H42.4431C27.9287 141.723 27.1753 153.917 24.7505 169.95H121.91C119.485 153.917 107.453 141.723 92.9383 141.723Z" fill="black"/>
<path d="M535.678 72.1061C533.762 68.0489 530.867 64.6892 527.174 62.764C524.256 61.2433 521.064 60.4318 517.793 60.4318H515.418C507.334 60.2487 496.88 56.5075 486.537 49.0534C464.394 33.0964 424.102 6 405.826 6H358.528C355.626 6 352.73 6.34859 349.914 7.16402C315.406 17.1633 274.417 60.4318 274.417 60.4318C274.417 60.4318 219.62 65.9188 174.952 93.527C166.493 98.7553 156.043 108.206 153 118.948C227.744 83.7379 300.102 72.4932 535.678 72.1061Z" fill="#7AB07D"/>
<path d="M532 128.651H507.975C501.017 128.651 494.671 124.317 490.87 117.431C485.196 107.154 476.957 101 466.508 101C455.912 101 447.641 104.924 441.211 111.72C429.525 124.075 414.565 131.254 399.009 133.591L296.909 148.932C285.841 150.595 275.328 142.807 271.735 130.328C266.613 112.536 256.499 101 242.274 101C221.024 101 209.113 116.771 202.678 139.873C200.588 147.376 194.919 152.694 188.26 153.389L148 157.586H192.784C195.958 157.586 198.428 160.894 197.979 164.606C197.842 165.729 197.714 166.861 197.592 168H203.713C207.249 135.068 217.367 109.187 242.51 109.187C262.188 109.187 272.831 135.068 271.331 168H275.378L275.379 167.999C275.646 161.664 279.969 156.648 285.327 156.648H413.47C418.556 156.648 422.485 161.924 421.838 167.883L421.826 168H427.946C431.482 135.068 441.601 109.187 466.743 109.187C486.365 109.187 497.005 134.915 495.579 167.709L499.727 166.104C500.093 157.128 499.632 148.655 498.405 140.968L532 128.651Z" fill="black"/>
<path d="M277.136 103.425C277.136 103.425 364.061 93.0997 400.757 90.581C437.452 88.0626 514.051 81.3409 514.051 81.3409C514.051 81.3409 407.675 104.18 277.136 103.425Z" fill="black"/>
<path d="M9.21631 110.33C6.13058 115.094 4.104 120.332 4.104 125.741L4.22802 126.502H152.785C160.034 126.502 166.748 121.465 169.236 113.567C169.253 113.51 169.271 113.454 169.288 113.397L170.232 110.33H9.21631Z" fill="#231F20"/>
<path d="M168.335 99.5285H142.438C131.457 99.5285 120.561 102.549 110.981 108.854C101.951 114.797 96.7689 121.675 97.7713 127.81C97.773 127.82 97.775 127.831 97.7767 127.842C98.0776 129.64 99.5404 130.847 101.1 130.847H147.385C159.299 130.847 169.928 122.046 173.934 108.862C175.316 104.314 172.446 99.5285 168.335 99.5285Z" fill="#231F20"/>
<path d="M385.458 85.9674C389.067 85.9674 391.992 83.5924 391.992 80.6628C391.992 77.7332 389.067 75.3582 385.458 75.3582C381.849 75.3582 378.924 77.7332 378.924 80.6628C378.924 83.5924 381.849 85.9674 385.458 85.9674Z" fill="#939598"/>
<path d="M390.281 83.6543H378.995C377.571 83.6543 376.416 82.3151 376.416 80.6628C376.416 79.0108 377.571 77.6714 378.995 77.6714H390.281C391.705 77.6714 392.86 79.0106 392.86 80.6628C392.86 82.3148 391.705 83.6543 390.281 83.6543Z" fill="#939598"/>
<path d="M391.896 83.6543H380.61C379.186 83.6543 378.031 82.3151 378.031 80.6628C378.031 79.0108 379.186 77.6714 380.61 77.6714H391.896C393.32 77.6714 394.475 79.0106 394.475 80.6628C394.474 82.3148 393.32 83.6543 391.896 83.6543Z" fill="white"/>
<path d="M466.45 83.6542C470.059 83.6542 472.984 81.2793 472.984 78.3497C472.984 75.42 470.059 73.0451 466.45 73.0451C462.841 73.0451 459.915 75.42 459.915 78.3497C459.915 81.2793 462.841 83.6542 466.45 83.6542Z" fill="#939598"/>
<path d="M471.273 81.341H459.986C458.563 81.341 457.408 80.0019 457.408 78.3496C457.408 76.6976 458.562 75.3585 459.986 75.3585H471.273C472.697 75.3585 473.851 76.6976 473.851 78.3496C473.851 80.0016 472.697 81.341 471.273 81.341Z" fill="#939598"/>
<path d="M472.888 81.341H461.601C460.177 81.341 459.023 80.0019 459.023 78.3496C459.023 76.6976 460.177 75.3585 461.601 75.3585H472.888C474.312 75.3585 475.466 76.6976 475.466 78.3496C475.466 80.0016 474.312 81.341 472.888 81.341Z" fill="white"/>
<path d="M16.433 99.5285H15.5986C7.87624 106.626 1.07666 116.309 1.07666 126.575L1.74798 130.847H28.1913C30.7981 130.847 33.2274 129.024 34.1992 126.118C34.528 125.134 34.7816 124.107 34.952 123.041C35.7112 118.291 34.7198 113.533 32.4388 109.402C28.9298 103.047 22.7812 99.5285 16.433 99.5285Z" fill="#231F20"/>
<path d="M167.03 99.5285H141.611C130.832 99.5285 120.138 102.456 110.735 108.567C101.872 114.327 96.7851 120.992 97.7688 126.938C97.7704 126.948 97.7722 126.959 97.7741 126.969C98.0695 128.712 99.5051 129.882 101.036 129.882H146.466C158.161 129.882 168.593 121.352 172.525 108.575C173.882 104.166 171.065 99.5285 167.03 99.5285Z" fill="#E6E7E8"/>
<path d="M164.207 110.813H150.461C144.633 110.813 138.85 112.396 133.765 115.7C128.973 118.815 126.222 122.42 126.754 125.635C126.755 125.64 126.756 125.646 126.757 125.651C126.917 126.594 127.693 127.226 128.521 127.226H153.087C159.411 127.226 165.052 122.614 167.179 115.705C167.912 113.321 166.389 110.813 164.207 110.813Z" fill="#D1D3D4"/>
<path d="M143.153 103.443H130.81C125.576 103.443 120.383 104.865 115.817 107.832C111.513 110.629 109.043 113.866 109.52 116.753C109.521 116.758 109.522 116.763 109.523 116.768C109.666 117.614 110.363 118.183 111.107 118.183H133.167C138.846 118.183 143.912 114.041 145.822 107.836C146.481 105.695 145.113 103.443 143.153 103.443Z" fill="white"/>
<path d="M16.3655 99.5285H15.528C7.77796 106.407 0.953857 115.792 0.953857 125.741L1.6276 129.882H28.166C30.7824 129.882 33.2203 128.114 34.1955 125.298C34.5256 124.344 34.7802 123.349 34.9513 122.316C35.7131 117.713 34.7181 113.101 32.4291 109.098C28.9075 102.938 22.7365 99.5285 16.3655 99.5285Z" fill="#E6E7E8"/>
<path d="M22.792 114.318H22.3905C18.6764 117.614 15.4062 122.112 15.4062 126.879L15.7291 128.863H28.447C29.7008 128.863 30.8691 128.016 31.3363 126.667C31.4946 126.21 31.6164 125.733 31.6985 125.238C32.0635 123.032 31.5868 120.822 30.4898 118.904C28.8023 115.952 25.8452 114.318 22.792 114.318Z" fill="#D1D3D4"/>
<path d="M17.3983 101.731H16.8682C11.9625 106.085 7.64258 112.026 7.64258 118.324L8.06901 120.945H24.868C26.524 120.945 28.0673 119.826 28.6847 118.043C28.8937 117.44 29.0549 116.81 29.1631 116.155C29.6454 113.241 29.0156 110.322 27.5666 107.788C25.3374 103.89 21.4311 101.731 17.3983 101.731Z" fill="white"/>
<path d="M340.96 8.83208H226.113C190.57 21.0115 137.044 57.2207 132.964 59.9993C132.909 60.0365 132.847 60.0376 132.792 60.0643H271.269C273.13 58.115 308.679 21.1703 340.96 8.83208Z" fill="black"/>
<path d="M406.281 10.8647H372.123C358.637 10.8647 345.315 14.5947 333.548 22.0367C311.909 35.7223 291.656 57.0163 285.497 63.745C339.731 58.5086 398.866 55.6272 460.772 55.6272C463.31 55.6272 465.827 55.6487 468.345 55.6686C470.259 55.6839 471.981 54.3498 472.66 52.3275C473.421 50.0605 472.69 47.5072 470.899 46.1706C449.756 30.3879 420.692 10.8647 406.281 10.8647Z" fill="#85D5D0"/>
<path d="M218.706 11.608C188.012 23.9595 148.413 49.6841 136.368 57.7106H253.614C262.347 57.7106 270.811 54.2974 277.66 48.0118C289.013 37.5933 306.677 22.8214 324.549 13.5439C325.41 13.097 325.128 11.608 324.185 11.608H218.706Z" fill="#85D5D0"/>
<path d="M470.898 46.1706C449.756 30.3879 420.692 10.8647 406.28 10.8647H372.123C358.638 10.8647 345.315 14.595 333.548 22.037C332.242 22.8628 330.943 23.7183 329.651 24.5948C329.213 28.8384 327.524 38.3947 321.121 54.7231C311.962 54.811 302.821 54.974 293.69 55.1776C290.057 58.8369 287.214 61.8694 285.497 63.7453C339.731 58.5091 398.866 55.6275 460.772 55.6275C463.31 55.6275 465.826 55.6489 468.344 55.6686C470.26 55.6841 471.981 54.3498 472.66 52.3278C473.422 50.0606 472.69 47.5072 470.898 46.1706ZM344.965 46.7844L343.164 54.6147C342.981 54.6142 342.801 54.6116 342.617 54.6116C336.074 54.6116 329.534 54.6415 322.999 54.6983C329.546 38.0534 331.304 28.3262 331.756 23.8703C335.099 26.4312 338.437 29.2537 341.692 32.2127C345.203 35.4024 346.382 40.6278 344.965 46.7844ZM454.185 46.7844H390.152C379.943 46.7844 369.943 43.425 361.314 37.0964L344.579 24.824C342.406 23.2303 343.379 19.3319 345.949 19.3319H421.802C428.019 19.3319 434.11 21.3778 439.367 25.2328L456.44 37.753C460.012 40.3739 458.412 46.7844 454.185 46.7844ZM323.091 17.9176C325.661 16.3672 328.252 14.8926 330.849 13.5439C331.711 13.097 331.428 11.6081 330.484 11.6081H225.007C194.312 23.9596 154.714 49.6841 142.668 57.7106H184.952C184.769 57.1061 184.716 56.4092 184.851 55.6177L174.298 51.6616C175.247 46.1036 214.777 26.6598 223.64 22.929C245.66 13.6599 280.844 14.6705 280.844 14.6705C280.38 17.3353 277.509 29.4928 267.761 55.8719C253.518 56.3486 239.33 56.9681 225.203 57.7106H259.915C264.711 57.7106 269.414 56.6463 273.825 54.6767C282.775 30.4045 285.833 19.228 286.683 14.6705C286.683 14.6705 316.94 14.2154 323.091 17.9176Z" fill="#231F20"/>
<path d="M456.333 46.7844H451.863L451.804 35.1749C451.799 34.1404 451.61 33.1791 451.338 32.2634C447.913 29.9604 444.464 27.7171 441.045 25.6039H435.683C430.219 25.6039 424.981 29.669 423.348 35.1749L419.905 46.7844H415.436C410.646 46.7844 406.186 50.7433 405.475 55.6264L405.361 56.4092C423.539 55.8953 442.026 55.627 460.772 55.627C461.759 55.627 462.734 55.6379 463.715 55.6427L463.717 55.6264C464.429 50.7433 461.123 46.7844 456.333 46.7844ZM389.64 46.7844H385.171L385.112 35.1749C385.085 29.669 381.029 25.6039 375.565 25.6039H368.991C363.526 25.6039 358.288 29.669 356.654 35.1749L353.213 46.7844H348.743C343.953 46.7844 339.493 50.7433 338.782 55.6264L338.216 59.5104C357.319 58.2735 376.903 57.3246 396.873 56.6713L397.025 55.6264C397.737 50.7433 394.43 46.7844 389.64 46.7844Z" fill="#414042"/>
<path d="M290.073 35.1749C290.044 29.669 285.99 25.6039 280.525 25.6039H273.951C268.487 25.6039 263.248 29.669 261.615 35.1749L258.173 46.7844H253.704C248.913 46.7844 244.453 50.7434 243.742 55.6264L243.438 57.7106H259.914C268.647 57.7106 277.111 54.2971 283.96 48.0121C285.841 46.286 287.909 44.4324 290.109 42.5121L290.073 35.1749ZM374.391 46.7844H369.922L369.863 35.1749C369.836 29.669 365.78 25.6039 360.316 25.6039H353.742C348.277 25.6039 343.038 29.669 341.405 35.1749L337.964 46.7844H333.494C328.704 46.7844 324.244 50.7434 323.533 55.6264L322.811 60.5829C341.911 59.1759 361.509 58.0459 381.542 57.228L381.776 55.6264C382.488 50.7434 379.181 46.7844 374.391 46.7844ZM299.979 49.0125C293.269 55.4113 288.108 60.8924 285.496 63.745C290.62 63.2506 295.8 62.7837 301.009 62.3315L301.986 55.6267C302.371 52.9805 301.55 50.633 299.979 49.0125Z" fill="#58595B"/>
<path d="M143.991 57.7106H253.614C260.664 57.7106 267.522 55.4519 273.513 51.288H167.354C163.004 51.2882 151.823 53.8339 143.991 57.7106Z" fill="#6D6E71"/>
<path opacity="0.5" d="M349.913 39.8417C361.68 32.3994 375.002 28.6694 388.488 28.6694H422.646C433.863 28.6694 453.949 40.5023 472.277 53.1883C472.424 52.9165 472.557 52.6327 472.66 52.3272C473.421 50.0606 472.689 47.5072 470.898 46.1706C449.756 30.3879 420.692 10.8647 406.28 10.8647H372.123C358.638 10.8647 345.315 14.595 333.548 22.037C311.909 35.7228 291.656 57.0165 285.496 63.7453C297.784 62.5587 310.336 61.5006 323.102 60.5621C331.035 53.4451 340.335 45.8992 349.913 39.8417Z" fill="white"/>
<path opacity="0.5" d="M192.629 49.8722C212.346 38.9967 233.901 33.3275 255.732 33.3275H294.838C303.88 26.1654 314.174 18.9295 324.549 13.5439C325.411 13.097 325.128 11.608 324.184 11.608H218.707C188.012 23.9595 148.414 49.6841 136.368 57.7106H178.893C183.321 55.1077 187.928 52.4652 192.629 49.8722Z" fill="white"/>
<path d="M418.19 160.312H312.26C308.364 160.312 305.195 156.635 305.195 152.114V80.7414L298.151 60.1299L298.965 59.7548L306.07 80.6439V152.114C306.07 156.074 308.847 159.296 312.26 159.296H418.19C423.12 159.296 427.391 155.655 428.819 150.237C432.831 135.002 442.471 108.693 461.951 103.672C468.299 102.254 472.994 96.2991 473.645 88.8515L475.08 72.4451L467.399 52.8515L468.195 52.4308L475.975 72.2744L474.516 88.9546C473.826 96.8516 468.847 103.166 462.129 104.666C443.095 109.573 433.613 135.51 429.656 150.534C428.115 156.383 423.508 160.312 418.19 160.312Z" fill="black"/>
<path d="M396.691 159.825L395.816 159.783L398.792 74.3432L392.862 54.8676L393.688 54.5283L399.674 74.1883L396.691 159.825Z" fill="black"/>
<path d="M471.372 45.3158C460.2 36.9762 447.121 27.8301 435.072 20.9062C435.07 20.9043 435.066 20.8952 435.065 20.8933L435.058 20.8983C423.734 14.3929 413.319 9.84885 406.281 9.84885H372.124C358.296 9.84885 344.812 13.7554 333.129 21.1456C311.28 34.9638 290.688 56.6793 284.896 63.0059C284.626 63.3016 284.546 63.7639 284.697 64.1587C284.838 64.5267 285.153 64.7607 285.496 64.7607C285.52 64.7607 285.545 64.7596 285.57 64.7568C341.329 59.3734 400.276 56.6432 460.773 56.6432C463.193 56.6432 465.594 56.6621 467.995 56.6809L468.338 56.6841C470.585 56.6959 472.668 55.0988 473.475 52.6964C474.394 49.9615 473.53 46.9258 471.372 45.3158ZM433.779 22.4003C434.735 24.5425 438.666 34.3933 440.563 54.7229C425.618 54.8758 410.792 55.2106 396.087 55.6999C393.268 30.7824 389.598 16.503 388.271 11.8804H406.281C412.964 11.8804 422.896 16.178 433.779 22.4003ZM312.543 55.6177L311.349 51.6616C309.67 46.1036 311.344 39.9181 315.479 36.5023C321.305 31.6896 327.58 26.9688 333.967 22.929C345.395 15.7005 358.589 11.8804 372.124 11.8804H382.767C383.564 14.5455 387.778 29.4931 390.804 55.8723C366.175 56.7612 341.918 58.1108 318.162 59.9283C315.663 60.1192 313.371 58.3594 312.543 55.6177ZM460.773 54.6117C454.606 54.6117 448.455 54.6415 442.323 54.6984C440.786 38.0535 437.94 28.3262 436.303 23.8703C440.639 26.4313 445.092 29.2537 449.531 32.2128C454.317 35.4025 457.847 40.6276 459.362 46.7845L461.29 54.6148C461.117 54.6142 460.946 54.6117 460.773 54.6117Z" fill="black"/>
<path d="M520.48 87.4381L522.007 92.1095C524.715 100.397 530.742 106.424 537.935 108.489C538.623 98.0242 538.616 90.1838 538.616 90.1838C538.616 86.817 538.255 83.8188 537.76 81.2545H524.16C521.407 81.254 519.505 84.4507 520.48 87.4381Z" fill="#BE1E2D"/>
<path d="M526.132 88.1207L527.089 91.0482C528.11 94.1745 529.885 96.7875 532.12 98.6546C534.253 100.437 537.25 98.6541 537.366 95.6074C537.5 92.1038 537.497 89.8411 537.497 89.8411C537.497 89.5311 537.493 89.2264 537.483 88.9265C537.402 86.3206 535.586 84.2451 533.339 84.2451H528.438C526.713 84.2454 525.52 86.2488 526.132 88.1207Z" fill="#ED1C24"/>
<path opacity="0.5" d="M522.296 84.3032L523.146 85.8656C524.054 87.5342 525.633 88.9288 527.619 89.9253C529.516 90.8765 532.181 89.925 532.284 88.299C532.402 86.429 532.4 85.2214 532.4 85.2214C532.4 85.0561 532.396 84.8933 532.388 84.7331C532.316 83.3424 530.701 82.2344 528.703 82.2344H524.346C522.812 82.2347 521.752 83.3041 522.296 84.3032Z" fill="white"/>
<path d="M537.935 108.743C537.918 108.743 537.9 108.741 537.883 108.736C530.504 106.617 524.493 100.435 521.802 92.1996L520.276 87.5283C519.785 86.0244 519.955 84.4037 520.742 83.0811C521.529 81.7588 522.775 81 524.161 81H537.76C537.881 81 537.979 81.114 537.979 81.254C537.979 81.3939 537.881 81.508 537.76 81.508H524.161C522.921 81.508 521.807 82.1865 521.102 83.37C520.398 84.5535 520.246 86.0027 520.685 87.3478L522.211 92.0191C524.851 100.1 530.749 106.164 537.988 108.243C538.105 108.275 538.177 108.413 538.148 108.55C538.123 108.665 538.033 108.743 537.935 108.743Z" fill="black"/>
<path d="M331.515 72.1996C331.507 72.1686 331.498 72.141 331.49 72.11C331.299 71.3934 331.097 70.7016 330.873 70.0557C330.805 69.8557 330.727 69.6829 330.656 69.4908C330.479 69.0198 330.305 68.5414 330.11 68.1198C329.833 67.5108 329.538 66.9541 329.226 66.4645C329.22 66.4563 329.216 66.4456 329.211 66.4374L320.432 52.7595C319.703 51.6244 318.93 51.1666 318.2 51.315C316.983 51.5614 315.887 53.4938 315.324 56.7868L315.133 57.9083L313.715 66.2012L304.538 55.5853L303.851 61.6102L329.536 92.343C330.982 94.1054 332.51 91.9981 332.826 87.806V87.8055C333.233 82.3934 332.698 76.6898 331.515 72.1996Z" fill="#939598"/>
<path d="M333.484 60.5785H307.682L308.843 48.7105C309.248 44.5668 312.027 41.61 315.114 42.0389L329.063 43.9775C333.385 44.5784 336.797 49.1925 337.226 55.0166C337.444 57.9956 335.707 60.5785 333.484 60.5785Z" fill="black"/>
<path d="M330.286 60.5785H303.851V56.1131H326.714C328.687 56.1131 330.286 57.9686 330.286 60.2575V60.5785Z" fill="black"/>
<path d="M329.062 43.9778L315.114 42.0389C312.027 41.6097 309.248 44.5668 308.843 48.7104L308.591 51.288H326.997C329.936 51.288 332.533 49.5938 334.155 47.025C332.765 45.3721 331.017 44.2498 329.062 43.9778Z" fill="black"/>
</svg>
