<svg width="150" height="150" viewBox="0 0 150 150" fill="none" xmlns="http://www.w3.org/2000/svg">
<circle cx="75" cy="75" r="75" fill="#86D28B"/>
<path d="M90.5063 60.597L100.135 79.936C100.305 80.19 100.389 80.5278 100.473 80.7818C101.065 82.3033 101.486 84.414 101.486 85.7652V94.9699C101.486 97.8426 99.5434 100.207 96.8409 100.883V106.288C96.8409 108.907 94.7303 110.933 92.1953 110.933C89.5766 110.933 87.5498 108.907 87.5498 106.288V101.05H50.5583V106.288C50.5583 108.907 48.5314 110.933 45.9127 110.933C43.3778 110.933 41.2671 108.907 41.2671 106.288V100.883C38.5647 100.207 36.6216 97.8426 36.6216 94.9699V85.7652C36.6216 84.414 37.0432 82.3033 37.635 80.7818C37.7188 80.5278 37.8053 80.19 37.9728 79.936L47.6017 60.597C48.3611 59.162 50.388 57.8108 52.0771 57.8108H86.0283C87.7173 57.8108 89.7469 59.162 90.5063 60.597ZM51.5717 66.4236L46.4208 78.1631C46.1667 78.5847 46.1667 79.0928 46.1667 79.4306H91.9413C91.9413 79.0928 91.9413 78.5847 91.6873 78.1631L86.5363 66.4236C85.8607 64.9021 83.8339 63.5509 82.2286 63.5509H55.8794C54.2742 63.5509 52.2473 64.9021 51.5717 66.4236ZM49.2935 94.9672C51.996 94.9672 54.1066 92.77 54.1066 89.9838C54.1066 87.2813 51.996 85.1707 49.2935 85.1707C46.591 85.1707 44.3101 87.2813 44.3101 89.9838C44.3101 92.77 46.591 94.9672 49.2935 94.9672ZM88.8172 94.9672C91.5197 94.9672 93.8006 92.77 93.8006 89.9838C93.8006 87.2813 91.5197 85.1707 88.8172 85.1707C86.1148 85.1707 84.0041 87.2813 84.0041 89.9838C84.0041 92.77 86.1148 94.9672 88.8172 94.9672Z" fill="black"/>
<path fill-rule="evenodd" clip-rule="evenodd" d="M113.209 35.7635C113.621 58.8412 100.172 68.6587 92.5467 70.9729C92.0416 71.1266 91.5038 71.1266 90.9987 70.9729C83.4983 68.6959 70.4347 59.1689 70.3885 36.9121C70.4333 34.9863 71.4907 33.2361 73.1521 32.3378C84.7599 25.6283 90.3429 23.8918 91.7629 23.8918C93.1825 23.8918 99.2071 25.7432 111.586 33.0135C112.56 33.5741 113.176 34.618 113.209 35.7635Z" fill="#86D28B" stroke="black" stroke-width="5.06757" stroke-linecap="round" stroke-linejoin="round"/>
<path d="M91.7991 54.6587C90.3997 54.6587 89.2653 55.7932 89.2653 57.1925C89.2653 58.5918 90.3997 59.7263 91.7991 59.7263V54.6587ZM88.0933 44.8378L89.9389 43.1016C89.8518 43.009 89.7579 42.9232 89.6579 42.8445L88.0933 44.8378ZM86.8582 42.1351L89.39 42.2361C89.3913 42.2026 89.392 42.1688 89.392 42.1351H86.8582ZM91.7991 40.4222C93.1984 40.4222 94.3329 39.2878 94.3329 37.8884C94.3329 36.4891 93.1984 35.3546 91.7991 35.3546V40.4222ZM91.7991 59.7263C93.1984 59.7263 94.3329 58.5918 94.3329 57.1925C94.3329 55.7932 93.1984 54.6587 91.7991 54.6587V59.7263ZM89.392 50.7499C89.392 49.3506 88.2575 48.2161 86.8583 48.2161C85.4589 48.2161 84.3245 49.3506 84.3245 50.7499H89.392ZM94.3329 57.1925C94.3329 55.7932 93.1984 54.6587 91.7991 54.6587C90.3997 54.6587 89.2653 55.7932 89.2653 57.1925H94.3329ZM89.2653 61.054C89.2653 62.4533 90.3997 63.5878 91.7991 63.5878C93.1984 63.5878 94.3329 62.4533 94.3329 61.054H89.2653ZM91.7991 35.3546C90.3997 35.3546 89.2653 36.4891 89.2653 37.8884C89.2653 39.2878 90.3997 40.4222 91.7991 40.4222V35.3546ZM94.2062 43.7871C94.2062 45.1864 95.3406 46.3209 96.74 46.3209C98.1393 46.3209 99.2737 45.1864 99.2737 43.7871H94.2062ZM89.2653 37.8884C89.2653 39.2878 90.3997 40.4222 91.7991 40.4222C93.1984 40.4222 94.3329 39.2878 94.3329 37.8884H89.2653ZM94.3329 34.0269C94.3329 32.6276 93.1984 31.4932 91.7991 31.4932C90.3997 31.4932 89.2653 32.6276 89.2653 34.0269H94.3329ZM91.7991 59.7263C92.967 59.7263 94.7018 59.4371 96.2335 58.4763C97.8997 57.431 99.2737 55.5959 99.2737 52.8952H94.2062C94.2062 53.3283 94.1075 53.5736 94.0207 53.7199C93.9268 53.8783 93.7771 54.0351 93.5406 54.1834C93.0136 54.5138 92.2781 54.6587 91.7991 54.6587V59.7263ZM99.2737 52.8952C99.2737 51.2489 98.8018 49.8631 97.897 48.7195C97.0592 47.6607 95.9677 46.9668 95.0525 46.4499C93.046 45.3165 91.4447 44.7023 89.9389 43.1016L86.2479 46.5739C88.4477 48.9124 91.1697 50.0769 92.5599 50.8624C93.3433 51.305 93.7187 51.6057 93.9231 51.8641C94.0606 52.0378 94.2062 52.2915 94.2062 52.8952H99.2737ZM89.6579 42.8445C89.4933 42.7155 89.3798 42.4922 89.39 42.2361L84.3264 42.034C84.2525 43.8851 85.0607 45.6783 86.529 46.831L89.6579 42.8445ZM89.392 42.1351C89.392 41.4668 89.5258 41.1462 89.6011 41.0141C89.67 40.8925 89.7592 40.805 89.9133 40.7218C90.3318 40.4961 90.9896 40.4222 91.7991 40.4222V35.3546C90.9616 35.3546 89.1487 35.377 87.5087 36.2611C86.6334 36.733 85.7962 37.4535 85.1962 38.5085C84.6023 39.5526 84.3244 40.7763 84.3244 42.1351H89.392ZM91.7991 54.6587C91.5437 54.6587 90.9521 54.5327 90.4454 54.057C90.0082 53.6469 89.392 52.7492 89.392 50.7499H84.3245C84.3245 53.906 85.3552 56.2296 86.977 57.7519C88.5288 59.2087 90.4075 59.7263 91.7991 59.7263V54.6587ZM89.2653 57.1925V61.054H94.3329V57.1925H89.2653ZM91.7991 40.4222C92.3116 40.4222 92.8893 40.5483 93.2964 40.8766C93.5977 41.1199 94.2062 41.7888 94.2062 43.7871H99.2737C99.2737 40.6301 98.2352 38.3498 96.4778 36.9323C94.8261 35.6002 92.9335 35.3546 91.7991 35.3546V40.4222ZM94.3329 37.8884V34.0269H89.2653V37.8884H94.3329Z" fill="black"/>
</svg>
