<svg width="150" height="150" viewBox="0 0 150 150" fill="none" xmlns="http://www.w3.org/2000/svg">
<circle cx="75" cy="75" r="75" fill="#86D28B"/>
<path d="M108.333 66.6667V54.1667C108.333 49.5643 104.602 45.8333 100 45.8333H50C45.3976 45.8333 41.6667 49.5643 41.6667 54.1667V66.6667M108.333 66.6667V104.167C108.333 108.769 104.602 112.5 100 112.5H50C45.3976 112.5 41.6667 108.769 41.6667 104.167V66.6667M108.333 66.6667H41.6667M58.3333 37.5V54.1667M91.6667 37.5V54.1667" stroke="black" stroke-width="8.33333" stroke-linecap="round"/>
<path d="M60.4167 75H52.0833C50.9327 75 50 75.9327 50 77.0833V85.4167C50 86.5673 50.9327 87.5 52.0833 87.5H60.4167C61.5673 87.5 62.5 86.5673 62.5 85.4167V77.0833C62.5 75.9327 61.5673 75 60.4167 75Z" fill="black"/>
<path d="M79.1667 75H70.8333C69.6827 75 68.75 75.9327 68.75 77.0833V85.4167C68.75 86.5673 69.6827 87.5 70.8333 87.5H79.1667C80.3173 87.5 81.25 86.5673 81.25 85.4167V77.0833C81.25 75.9327 80.3173 75 79.1667 75Z" fill="black"/>
<path d="M97.9167 75H89.5833C88.4327 75 87.5 75.9327 87.5 77.0833V85.4167C87.5 86.5673 88.4327 87.5 89.5833 87.5H97.9167C99.0673 87.5 100 86.5673 100 85.4167V77.0833C100 75.9327 99.0673 75 97.9167 75Z" fill="black"/>
</svg>
