<svg width="178" height="277" viewBox="0 0 178 277" fill="none" xmlns="http://www.w3.org/2000/svg">
<path d="M170.518 276.729H9.48187C4.43874 276.729 0.3125 272.603 0.3125 267.56V56.4675C0.3125 51.4243 4.43874 47.2981 9.48187 47.2981H170.518C175.561 47.2981 179.688 51.4243 179.688 56.4675V267.559C179.688 272.603 175.561 276.729 170.518 276.729Z" fill="#5A975E"/>
<path opacity="0.5" d="M172.253 64.0737H19.6875V259.953H172.253V64.0737Z" fill="#70492F"/>
<path d="M169.479 59.6562H16.9143V255.536H169.479V59.6562Z" fill="#CECECE"/>
<path d="M166.523 56.5312H13.125V252.411H166.523V56.5312Z" fill="#EAEAEA"/>
<path d="M111.25 249.911H15V54.0312H164.375V197.042L111.25 249.911Z" fill="white"/>
<path d="M140.703 33.6044C130.85 31.0994 119.349 29.125 110.961 15.035L110.96 15.0369C108.139 6.34687 99.9819 0.0625 90.3519 0.0625C80.7219 0.0625 72.5637 6.34688 69.7437 15.0375L69.7431 15.035C61.3544 29.125 49.8525 31.0994 40 33.6044C40 33.6044 19.6875 36.4169 19.6875 64.2294H161.016C161.016 36.4169 140.703 33.6044 140.703 33.6044ZM90.3519 35.6481C82.6644 35.6481 76.4325 29.4163 76.4325 21.7288C76.4325 14.0413 82.6644 7.80938 90.3519 7.80938C98.0394 7.80938 104.271 14.0413 104.271 21.7288C104.271 29.4169 98.0387 35.6481 90.3519 35.6481Z" fill="#939598"/>
<path opacity="0.3" d="M153.092 60.7637C153.092 53.3268 147.063 47.2981 139.626 47.2981H41.0768C33.6399 47.2981 27.6112 53.3268 27.6112 60.7637H153.092Z" fill="white"/>
<path d="M32.1362 43.0113C30.21 45.61 29.4644 48.3207 30.47 49.0663C31.4756 49.8119 33.8525 48.3094 35.7781 45.7107C37.7044 43.1119 38.45 40.4013 37.4444 39.6557C36.4394 38.9107 34.0625 40.4132 32.1362 43.0113Z" fill="white"/>
<path d="M39.0623 77.0196H37.1684C37.0564 76.4748 36.8603 75.9962 36.5803 75.5839C36.3054 75.1715 35.9694 74.8253 35.5723 74.5452C35.1802 74.2601 34.7449 74.0463 34.2663 73.9037C33.7878 73.7612 33.2888 73.6899 32.7695 73.6899C31.8225 73.6899 30.9647 73.9292 30.1959 74.4078C29.4322 74.8863 28.8238 75.5915 28.3707 76.5232C27.9226 77.4549 27.6986 78.5979 27.6986 79.9522C27.6986 81.3064 27.9226 82.4494 28.3707 83.3811C28.8238 84.3128 29.4322 85.018 30.1959 85.4965C30.9647 85.9751 31.8225 86.2144 32.7695 86.2144C33.2888 86.2144 33.7878 86.1431 34.2663 86.0006C34.7449 85.858 35.1802 85.6467 35.5723 85.3667C35.9694 85.0816 36.3054 84.7329 36.5803 84.3205C36.8603 83.903 37.0564 83.4244 37.1684 82.8847H39.0623C38.9198 83.6841 38.6601 84.3994 38.2834 85.0307C37.9066 85.662 37.4382 86.1991 36.8782 86.6421C36.3181 87.0799 35.6894 87.4134 34.9919 87.6425C34.2994 87.8716 33.5587 87.9862 32.7695 87.9862C31.4356 87.9862 30.2493 87.6603 29.2107 87.0086C28.1721 86.357 27.355 85.4304 26.7593 84.2288C26.1636 83.0273 25.8658 81.6017 25.8658 79.9522C25.8658 78.3026 26.1636 76.877 26.7593 75.6755C27.355 74.474 28.1721 73.5473 29.2107 72.8957C30.2493 72.244 31.4356 71.9181 32.7695 71.9181C33.5587 71.9181 34.2994 72.0327 34.9919 72.2618C35.6894 72.4909 36.3181 72.8269 36.8782 73.2699C37.4382 73.7077 37.9066 74.2423 38.2834 74.8736C38.6601 75.4998 38.9198 76.2152 39.0623 77.0196ZM42.1228 87.7723V72.132H44.0168V79.0968H52.3562V72.132H54.2502V87.7723H52.3562V80.7769H44.0168V87.7723H42.1228ZM58.0419 87.7723V72.132H67.4811V73.8121H59.9359V79.0968H66.9924V80.7769H59.9359V86.0922H67.6033V87.7723H58.0419ZM83.4804 77.0196H81.5865C81.4745 76.4748 81.2784 75.9962 80.9984 75.5839C80.7235 75.1715 80.3875 74.8253 79.9904 74.5452C79.5983 74.2601 79.163 74.0463 78.6844 73.9037C78.2059 73.7612 77.7069 73.6899 77.1876 73.6899C76.2406 73.6899 75.3828 73.9292 74.614 74.4078C73.8503 74.8863 73.2419 75.5915 72.7888 76.5232C72.3407 77.4549 72.1167 78.5979 72.1167 79.9522C72.1167 81.3064 72.3407 82.4494 72.7888 83.3811C73.2419 84.3128 73.8503 85.018 74.614 85.4965C75.3828 85.9751 76.2406 86.2144 77.1876 86.2144C77.7069 86.2144 78.2059 86.1431 78.6844 86.0006C79.163 85.858 79.5983 85.6467 79.9904 85.3667C80.3875 85.0816 80.7235 84.7329 80.9984 84.3205C81.2784 83.903 81.4745 83.4244 81.5865 82.8847H83.4804C83.3379 83.6841 83.0782 84.3994 82.7014 85.0307C82.3247 85.662 81.8563 86.1991 81.2963 86.6421C80.7362 87.0799 80.1075 87.4134 79.4099 87.6425C78.7175 87.8716 77.9768 87.9862 77.1876 87.9862C75.8537 87.9862 74.6674 87.6603 73.6288 87.0086C72.5902 86.357 71.7731 85.4304 71.1774 84.2288C70.5817 83.0273 70.2839 81.6017 70.2839 79.9522C70.2839 78.3026 70.5817 76.877 71.1774 75.6755C71.7731 74.474 72.5902 73.5473 73.6288 72.8957C74.6674 72.244 75.8537 71.9181 77.1876 71.9181C77.9768 71.9181 78.7175 72.0327 79.4099 72.2618C80.1075 72.4909 80.7362 72.8269 81.2963 73.2699C81.8563 73.7077 82.3247 74.2423 82.7014 74.8736C83.0782 75.4998 83.3379 76.2152 83.4804 77.0196ZM86.5409 87.7723V72.132H88.4349V79.8911H88.6181L95.6441 72.132H98.1184L91.5507 79.1885L98.1184 87.7723H95.8274L90.3899 80.502L88.4349 82.7014V87.7723H86.5409ZM106.618 87.7723V72.132H108.512V86.0922H115.783V87.7723H106.618ZM120.609 72.132V87.7723H118.715V72.132H120.609ZM132.96 76.0421C132.868 75.2682 132.497 74.6674 131.845 74.2398C131.193 73.8121 130.394 73.5983 129.447 73.5983C128.754 73.5983 128.149 73.7103 127.629 73.9343C127.115 74.1583 126.713 74.4663 126.423 74.8583C126.138 75.2504 125.995 75.6959 125.995 76.1948C125.995 76.6123 126.094 76.9712 126.293 77.2716C126.497 77.5669 126.756 77.8138 127.072 78.0124C127.387 78.2059 127.718 78.3662 128.065 78.4935C128.411 78.6157 128.729 78.715 129.019 78.7913L130.608 79.219C131.015 79.3259 131.468 79.4736 131.967 79.662C132.471 79.8503 132.952 80.1074 133.41 80.4333C133.874 80.754 134.256 81.1664 134.556 81.6705C134.856 82.1745 135.007 82.7931 135.007 83.5262C135.007 84.3714 134.785 85.1351 134.342 85.8173C133.904 86.4995 133.263 87.0417 132.418 87.444C131.578 87.8462 130.557 88.0473 129.355 88.0473C128.235 88.0473 127.265 87.8665 126.446 87.505C125.631 87.1436 124.989 86.6395 124.521 85.9929C124.058 85.3464 123.796 84.5954 123.734 83.7401H125.69C125.74 84.3306 125.939 84.8194 126.285 85.2063C126.637 85.5882 127.079 85.8733 127.614 86.0617C128.154 86.245 128.734 86.3366 129.355 86.3366C130.078 86.3366 130.727 86.2195 131.303 85.9853C131.878 85.746 132.334 85.4151 132.67 84.9925C133.006 84.5648 133.174 84.0659 133.174 83.4957C133.174 82.9764 133.029 82.5538 132.738 82.228C132.448 81.9021 132.066 81.6374 131.593 81.4337C131.119 81.2301 130.608 81.0519 130.058 80.8991L128.133 80.3493C126.911 79.998 125.944 79.4965 125.231 78.8448C124.519 78.1931 124.162 77.3403 124.162 76.2864C124.162 75.4107 124.399 74.6471 124.872 73.9954C125.351 73.3386 125.992 72.8295 126.797 72.468C127.606 72.1014 128.51 71.9181 129.508 71.9181C130.516 71.9181 131.412 72.0989 132.196 72.4604C132.98 72.8168 133.601 73.3055 134.06 73.9266C134.523 74.5478 134.767 75.2529 134.793 76.0421H132.96ZM137.265 73.8121V72.132H148.995V73.8121H144.077V87.7723H142.183V73.8121H137.265Z" fill="#5A975E"/>
<path d="M153.334 105.583H64.1669V108.916H153.334V105.583Z" fill="#D1D1D1"/>
<path d="M153.334 119.438H64.1669V122.771H153.334V119.438Z" fill="#D1D1D1"/>
<path d="M153.334 133.292H64.1669V136.625H153.334V133.292Z" fill="#D1D1D1"/>
<path d="M57.0018 136.625H25.96V105.583H57.0018V136.625ZM29.085 133.5H53.8768V108.708H29.085V133.5Z" fill="#231F20"/>
<path d="M153.334 152.719H64.1669V156.052H153.334V152.719Z" fill="#D1D1D1"/>
<path d="M153.334 166.573H64.1669V169.906H153.334V166.573Z" fill="#D1D1D1"/>
<path d="M153.334 180.427H64.1669V183.761H153.334V180.427Z" fill="#D1D1D1"/>
<path d="M57.0018 183.761H25.96V152.719H57.0018V183.761ZM29.085 180.636H53.8768V155.844H29.085V180.636Z" fill="#231F20"/>
<path d="M147.084 199.854H64.1669V203.188H147.084V199.854Z" fill="#D1D1D1"/>
<path d="M128.334 213.708H64.1669V217.041H128.334V213.708Z" fill="#D1D1D1"/>
<path d="M122.084 227.562H64.1669V230.896H122.084V227.562Z" fill="#D1D1D1"/>
<path d="M57.0018 230.896H25.96V199.854H57.0018V230.896ZM29.085 227.771H53.8768V202.979H29.085V227.771Z" fill="#231F20"/>
<path d="M164.375 197.042L111.25 249.911L116.562 197.042H164.375Z" fill="#D1D1D1"/>
<path d="M38.6063 119.604L32.4188 113.417L26.2319 119.604L32.4188 125.791L38.0169 131.389L38.6063 131.978L59.2301 111.354L53.0432 105.167L38.6063 119.604Z" fill="#5A975E"/>
<path d="M38.6063 166.795L32.4188 160.608L26.2319 166.795L32.4188 172.982L38.0169 178.58L38.6063 179.169L59.2301 158.546L53.0432 152.358L38.6063 166.795Z" fill="#5A975E"/>
</svg>
