<svg width="44" height="52" viewBox="0 0 44 52" fill="none" xmlns="http://www.w3.org/2000/svg">
<path d="M21.7725 36.492V23.8047" stroke="black" stroke-width="2.8125" stroke-linecap="round"/>
<path d="M21.7724 15.3466C22.7744 15.3466 23.5867 16.2933 23.5867 17.4611C23.5867 18.629 22.7744 19.5757 21.7724 19.5757C20.7703 19.5757 19.958 18.629 19.958 17.4611C19.958 16.2933 20.7703 15.3466 21.7724 15.3466Z" fill="black"/>
<path d="M39.9158 25.9192C39.9158 35.8872 39.9158 40.8714 37.2587 43.968C34.6018 47.0647 30.3252 47.0647 21.7724 47.0647C13.2194 47.0647 8.943 47.0647 6.28596 43.968C3.62891 40.8714 3.62891 35.8872 3.62891 25.9192C3.62891 15.9511 3.62891 10.9671 6.28596 7.87038C8.943 4.77368 13.2194 4.77368 21.7724 4.77368C30.3252 4.77368 34.6018 4.77368 37.2587 7.87038C39.0255 9.92941 39.6175 12.8228 39.8159 17.461" stroke="black" stroke-width="2.8125" stroke-linecap="round"/>
</svg>
