<svg width="44" height="50" viewBox="0 0 44 50" fill="none" xmlns="http://www.w3.org/2000/svg">
<path d="M18.347 4.73438C13.8482 4.80685 11.2977 5.1785 9.58657 7.08406C7.46094 9.4513 7.46094 13.2613 7.46094 20.8814V24.9225C7.46094 32.5425 7.46094 36.3527 9.58657 38.7198C11.7122 41.0871 15.1334 41.0871 21.9757 41.0871C28.818 41.0871 32.2393 41.0871 34.3648 38.7198C36.4905 36.3527 36.4905 32.5425 36.4905 24.9225V20.8814C36.4905 13.2613 36.4905 9.4513 34.3648 7.08406C32.6537 5.1785 30.1032 4.80685 25.6044 4.73438" stroke="black" stroke-width="2.6875" stroke-linecap="round"/>
<path d="M36.4905 26.9429H29.2331M7.46094 26.9429H21.9757" stroke="black" stroke-width="2.6875" stroke-linecap="round" stroke-linejoin="round"/>
<path d="M28.3252 33.0046H31.0467" stroke="black" stroke-width="2.6875" stroke-linecap="round" stroke-linejoin="round"/>
<path d="M12.9033 33.0046H15.6248" stroke="black" stroke-width="2.6875" stroke-linecap="round" stroke-linejoin="round"/>
<path d="M11.0889 40.0767V43.1075C11.0889 44.2235 11.9012 45.1281 12.9032 45.1281H15.6247C16.6268 45.1281 17.4391 44.2235 17.4391 43.1075V41.0869" stroke="black" stroke-width="2.6875" stroke-linecap="round" stroke-linejoin="round"/>
<path d="M32.861 40.0767V43.1075C32.861 44.2235 32.0487 45.1281 31.0466 45.1281H28.3251C27.323 45.1281 26.5107 44.2235 26.5107 43.1075V41.0869" stroke="black" stroke-width="2.6875" stroke-linecap="round" stroke-linejoin="round"/>
<path d="M36.4902 18.8606H38.3046C39.3066 18.8606 40.1189 19.7652 40.1189 20.8812V22.9017C40.1189 23.5378 39.85 24.1365 39.3932 24.5182L36.4902 26.9429" stroke="black" stroke-width="2.6875" stroke-linecap="round" stroke-linejoin="round"/>
<path d="M7.46072 18.8606H5.64638C4.64435 18.8606 3.83203 19.7652 3.83203 20.8812V22.9017C3.83203 23.5378 4.1009 24.1365 4.55777 24.5182L7.46072 26.9429" stroke="black" stroke-width="2.6875" stroke-linecap="round" stroke-linejoin="round"/>
<path d="M8.36816 10.7783H15.172M35.5834 10.7783H21.9758" stroke="black" stroke-width="2.6875" stroke-linecap="round"/>
</svg>
