<svg width="44" height="50" viewBox="0 0 44 50" fill="none" xmlns="http://www.w3.org/2000/svg">
<path d="M17.2363 25.9788L19.8283 29.2869L26.3081 21.0166" stroke="black" stroke-width="2.5" stroke-linecap="round" stroke-linejoin="round"/>
<path d="M5.44336 21.8781C5.44336 15.2668 5.44336 11.9612 6.12831 10.8492C6.81325 9.73707 9.54073 8.67314 14.9957 6.54527L16.035 6.13988C18.8786 5.03068 20.3003 4.47607 21.7725 4.47607C23.2446 4.47607 24.6664 5.03068 27.51 6.13988L28.5492 6.54527C34.0042 8.67314 36.7318 9.73707 37.4167 10.8492C38.1016 11.9612 38.1016 15.2668 38.1016 21.8781C38.1016 22.8766 38.1016 23.9595 38.1016 25.1339C38.1016 30.313 36.5833 34.3077 34.4729 37.3588M5.79324 29.2868C7.34889 38.174 13.7465 42.7527 17.9597 44.85C19.2687 45.5015 19.9231 45.8273 21.7725 45.8273C23.6218 45.8273 24.2763 45.5015 25.5851 44.85C26.6342 44.3277 27.8186 43.6518 29.0299 42.7938" stroke="black" stroke-width="2.5" stroke-linecap="round"/>
</svg>
