<svg width="44" height="49" viewBox="0 0 44 49" fill="none" xmlns="http://www.w3.org/2000/svg">
<path d="M40.1189 24.6687V27.7422C40.1189 35.6241 40.1189 39.5652 37.9933 42.0137C35.8678 44.4625 32.4464 44.4625 25.6042 44.4625H18.3468C11.5045 44.4625 8.08332 44.4625 5.95766 42.0137C3.83203 39.5652 3.83203 35.6241 3.83203 27.7422V24.6687C3.83203 20.0449 3.83203 17.7329 4.77404 15.8163C5.71605 13.8997 7.43705 12.7102 10.879 10.3312L14.5077 7.82317C18.1461 5.30841 19.9654 4.05103 21.9755 4.05103C23.9856 4.05103 25.8048 5.30841 29.4433 7.82317L33.072 10.3312C36.514 12.7102 38.2349 13.8997 39.1769 15.8163" stroke="black" stroke-width="2.6875" stroke-linecap="round"/>
<path d="M27.4183 36.3801H16.5322" stroke="black" stroke-width="2.6875" stroke-linecap="round"/>
</svg>
