<svg width="46" height="52" viewBox="0 0 46 52" fill="none" xmlns="http://www.w3.org/2000/svg">
<path d="M22.7852 17.7952V26.2534L27.532 31.5398" stroke="black" stroke-width="2.8125" stroke-linecap="round" stroke-linejoin="round"/>
<path d="M8.23673 15.4072L6.8127 15.4152C6.81661 16.2848 7.44868 16.9888 8.22958 16.9931L8.23673 15.4072ZM13.0629 17.0202C13.8494 17.0246 14.4901 16.3181 14.4941 15.4423C14.498 14.5664 13.8637 13.8528 13.0772 13.8484L13.0629 17.0202ZM9.63648 10.0166C9.63251 9.1407 8.99177 8.43423 8.20529 8.43863C7.41882 8.44305 6.78445 9.15665 6.78842 10.0325L9.63648 10.0166ZM7.12056 26.2536C7.12056 25.3778 6.48299 24.6677 5.69651 24.6677C4.91004 24.6677 4.27246 25.3778 4.27246 26.2536H7.12056ZM32.0424 44.1114C32.7233 43.6729 32.9559 42.7027 32.5621 41.9444C32.1683 41.1864 31.2971 40.9271 30.6164 41.3659L32.0424 44.1114ZM36.355 34.9751C35.961 35.7332 36.1938 36.7033 36.8745 37.1419C37.5554 37.5804 38.4265 37.3214 38.8203 36.5631L36.355 34.9751ZM9.76043 11.6024C9.20154 12.2187 9.19704 13.2228 9.7504 13.8452C10.3038 14.4676 11.2054 14.4726 11.7643 13.8564L9.76043 11.6024ZM35.8148 11.7433C28.5613 3.66524 16.8398 3.58345 9.6343 11.608L11.6482 13.8508C17.7224 7.08614 27.6406 7.12545 33.801 13.9861L35.8148 11.7433ZM9.6343 11.608L7.22978 14.2858L9.24369 16.5287L11.6482 13.8508L9.6343 11.608ZM8.22958 16.9931L13.0629 17.0202L13.0772 13.8484L8.24389 13.8214L8.22958 16.9931ZM9.66077 15.3993L9.63648 10.0166L6.78842 10.0325L6.8127 15.4152L9.66077 15.3993ZM22.7851 8.80855C31.4363 8.80855 38.4497 16.619 38.4497 26.2536H41.2978C41.2978 14.8672 33.0094 5.63672 22.7851 5.63672V8.80855ZM22.7851 43.6987C14.1338 43.6987 7.12056 35.8882 7.12056 26.2536H4.27246C4.27246 37.6401 12.5609 46.8705 22.7851 46.8705V43.6987ZM30.6164 41.3659C28.3139 42.8493 25.6406 43.6987 22.7851 43.6987V46.8705C26.1548 46.8705 29.3181 45.8665 32.0424 44.1114L30.6164 41.3659ZM38.4497 26.2536C38.4497 29.4337 37.687 32.4108 36.355 34.9751L38.8203 36.5631C40.3963 33.5292 41.2978 30.0063 41.2978 26.2536H38.4497ZM11.7643 13.8564C14.596 10.734 18.4873 8.80855 22.7851 8.80855V5.63672C17.7068 5.63672 13.1037 7.91602 9.76043 11.6024L11.7643 13.8564Z" fill="black"/>
</svg>
