<svg width="47" height="50" viewBox="0 0 47 50" fill="none" xmlns="http://www.w3.org/2000/svg">
<path d="M29.1139 25.1492H3.88184M3.88184 25.1492L10.6751 18.9465M3.88184 25.1492L10.6751 31.3519" stroke="black" stroke-width="3" stroke-linecap="round" stroke-linejoin="round"/>
<path d="M17.4717 14.8112C17.4952 10.3142 17.6824 7.87879 19.1738 6.29012C20.8793 4.47339 23.6241 4.47339 29.1139 4.47339H31.0548C36.5445 4.47339 39.2896 4.47339 40.9949 6.29012C42.7003 8.10684 42.7003 11.0308 42.7003 16.8788V33.4193C42.7003 39.2672 42.7003 42.1911 40.9949 44.0079C39.5034 45.5966 37.2172 45.7961 32.9953 45.8211M17.4717 35.4868C17.4952 39.9838 17.6824 42.4192 19.1738 44.0079C20.4185 45.3338 22.2168 45.6921 25.2316 45.7889" stroke="black" stroke-width="3" stroke-linecap="round"/>
</svg>
