<svg width="52" height="52" viewBox="0 0 52 52" fill="none" xmlns="http://www.w3.org/2000/svg">
<path d="M26.0002 21.6663C30.7866 21.6663 34.6668 17.7861 34.6668 12.9997C34.6668 8.21321 30.7866 4.33301 26.0002 4.33301C21.2137 4.33301 17.3335 8.21321 17.3335 12.9997C17.3335 17.7861 21.2137 21.6663 26.0002 21.6663Z" stroke="black" stroke-width="3.25"/>
<path d="M43.3278 38.9998C43.3332 38.6441 43.3332 38.2827 43.3332 37.9165C43.3332 32.5317 35.5728 28.1665 25.9998 28.1665C16.4269 28.1665 8.6665 32.5317 8.6665 37.9165C8.6665 43.3013 8.6665 47.6665 25.9998 47.6665C30.8337 47.6665 34.3194 47.327 36.8332 46.7205" stroke="black" stroke-width="3.25" stroke-linecap="round"/>
</svg>
